<?xml version="1.0" standalone="no"?>
<!DOCTYPE svg PUBLIC "-//W3C//DTD SVG 20010904//EN"
 "http://www.w3.org/TR/2001/REC-SVG-20010904/DTD/svg10.dtd">
<svg version="1.0" xmlns="http://www.w3.org/2000/svg"
 width="225.000000pt" height="225.000000pt" viewBox="0 0 225.000000 225.000000"
 preserveAspectRatio="xMidYMid meet">
<metadata>
Created by potrace 1.11, written by Peter Selinger 2001-2013
</metadata>
<g transform="translate(0.000000,225.000000) scale(0.100000,-0.100000)"
fill="#000000" stroke="none">
<path d="M311 2080 c-144 -35 -173 -227 -67 -455 79 -171 184 -289 364 -411 2
-1 -5 -19 -16 -41 -29 -58 -45 -139 -39 -198 14 -133 118 -236 294 -291 l83
-26 0 -39 c0 -39 0 -39 -41 -39 -73 0 -123 -74 -101 -148 6 -20 10 -36 9 -36
-28 -7 -87 -49 -104 -75 -32 -48 -30 -61 12 -61 40 0 40 1 20 -36 -29 -56 -48
-54 395 -54 441 0 424 -2 396 52 -17 31 -12 38 26 38 36 0 38 27 3 69 l-26 30
21 33 c11 18 20 46 20 61 0 36 -41 74 -89 83 -20 4 -47 15 -60 25 -14 11 -40
19 -62 19 -39 0 -39 0 -39 39 l0 39 83 26 c150 46 258 138 288 244 16 58 6
154 -23 227 l-24 59 57 38 c131 88 264 262 330 433 36 93 50 226 30 288 -16
46 -69 93 -123 108 -87 23 -237 -20 -340 -99 -100 -75 -209 -241 -254 -384
-10 -32 -22 -58 -28 -58 -6 0 -33 7 -61 16 -68 21 -176 21 -253 -1 -34 -10
-64 -16 -66 -14 -1 2 -15 40 -30 84 -74 211 -224 382 -380 433 -74 24 -159 34
-205 22z m213 -98 c80 -38 174 -129 234 -228 39 -66 106 -228 100 -244 -2 -4
-36 -35 -75 -69 -40 -34 -92 -88 -114 -121 l-42 -58 -41 25 c-139 88 -263 251
-322 424 -50 148 -35 255 40 294 47 24 140 14 220 -23z m1416 23 c64 -33 82
-121 51 -246 -47 -190 -182 -375 -347 -479 l-31 -20 -37 54 c-37 54 -98 116
-165 168 l-35 27 33 88 c96 257 271 420 454 422 26 1 61 -6 77 -14z m-928
-701 c74 -52 108 -137 86 -221 -17 -68 -87 -137 -154 -151 -203 -44 -340 201
-193 347 46 47 87 62 156 58 50 -2 71 -9 105 -33z m450 -1 c55 -40 88 -101 88
-165 0 -225 -292 -293 -394 -91 -9 19 -16 57 -16 91 0 51 5 67 33 108 46 68
103 97 184 92 50 -3 71 -10 105 -35z m-224 -627 c-3 -41 -3 -41 -46 -44 -24
-2 -49 1 -56 7 -7 6 -17 6 -26 1 -17 -11 -71 -13 -94 -4 -11 4 -16 19 -16 44
l0 37 120 0 121 0 -3 -41z"/>
<path d="M852 1251 c-40 -25 -72 -76 -72 -114 0 -72 63 -137 134 -137 78 0
136 58 136 138 0 36 -6 49 -38 83 -48 51 -107 62 -160 30z m142 -43 c22 -30
20 -55 -4 -63 -37 -12 -89 37 -76 71 9 23 63 17 80 -8z"/>
<path d="M1265 1251 c-48 -29 -67 -57 -72 -104 -17 -146 187 -207 250 -74 22
46 21 85 -3 125 -41 66 -117 89 -175 53z m135 -41 c11 -11 20 -26 20 -34 0
-21 -27 -38 -50 -31 -26 8 -54 50 -46 70 8 21 52 19 76 -5z"/>
</g>
</svg>
